<svg width="40" height="40" viewBox="0 0 40 40" fill="none" xmlns="http://www.w3.org/2000/svg">
<g filter="url(#filter0_d_2002_330)">
<path d="M20 10.04C14.5 10.04 10 14.53 10 20.06C10 25.06 13.66 29.21 18.44 29.96V22.96H15.9V20.06H18.44V17.85C18.44 15.34 19.93 13.96 22.22 13.96C23.31 13.96 24.45 14.15 24.45 14.15V16.62H23.19C21.95 16.62 21.56 17.39 21.56 18.18V20.06H24.34L23.89 22.96H21.56V29.96C23.9164 29.5879 26.0622 28.3856 27.6099 26.5701C29.1576 24.7546 30.0054 22.4457 30 20.06C30 14.53 25.5 10.04 20 10.04Z" fill="#828282"/>
</g>
<defs>
<filter id="filter0_d_2002_330" x="-4" y="0" width="48" height="48" filterUnits="userSpaceOnUse" color-interpolation-filters="sRGB">
<feFlood flood-opacity="0" result="BackgroundImageFix"/>
<feColorMatrix in="SourceAlpha" type="matrix" values="0 0 0 0 0 0 0 0 0 0 0 0 0 0 0 0 0 0 127 0" result="hardAlpha"/>
<feOffset dy="4"/>
<feGaussianBlur stdDeviation="2"/>
<feComposite in2="hardAlpha" operator="out"/>
<feColorMatrix type="matrix" values="0 0 0 0 0 0 0 0 0 0 0 0 0 0 0 0 0 0 0.25 0"/>
<feBlend mode="normal" in2="BackgroundImageFix" result="effect1_dropShadow_2002_330"/>
<feBlend mode="normal" in="SourceGraphic" in2="effect1_dropShadow_2002_330" result="shape"/>
</filter>
</defs>
</svg>
